<mxfile host="app.diagrams.net" modified="2023-09-21T07:20:13.180Z" agent="Mozilla/5.0 (Windows NT 10.0; Win64; x64) AppleWebKit/537.36 (KHTML, like Gecko) Chrome/117.0.0.0 Safari/537.36 Edg/117.0.2045.31" etag="_oQaWV1R0DUoNqwZqD6g" version="21.8.0" type="github">
  <diagram name="Page-1" id="97916047-d0de-89f5-080d-49f4d83e522f">
    <mxGraphModel dx="1980" dy="1121" grid="1" gridSize="10" guides="1" tooltips="1" connect="1" arrows="1" fold="1" page="1" pageScale="1.5" pageWidth="1169" pageHeight="827" background="none" math="0" shadow="0">
      <root>
        <mxCell id="0" />
        <mxCell id="1" parent="0" />
        <mxCell id="3" value="EABS CPU Module Software" style="rounded=0;shadow=1;fontStyle=1;fontSize=14;align=left;verticalAlign=top;" parent="1" vertex="1">
          <mxGeometry x="380" y="140" width="460" height="320" as="geometry" />
        </mxCell>
        <mxCell id="2xnklOY3mkxwDWEgLXTY-56" value="H/W" style="rounded=0;shadow=1;fontStyle=1;fontSize=28;align=center;verticalAlign=middle;spacing=2;" parent="1" vertex="1">
          <mxGeometry x="380" y="460" width="460" height="70" as="geometry" />
        </mxCell>
        <mxCell id="2xnklOY3mkxwDWEgLXTY-57" value="SafeRTOS" style="rounded=0;shadow=1;fontStyle=1;fontSize=24;align=center;verticalAlign=middle;" parent="1" vertex="1">
          <mxGeometry x="390" y="340" width="250" height="110" as="geometry" />
        </mxCell>
        <mxCell id="2xnklOY3mkxwDWEgLXTY-58" value="Device Driver" style="rounded=0;shadow=1;fontStyle=1;fontSize=24;align=center;verticalAlign=middle;" parent="1" vertex="1">
          <mxGeometry x="650" y="340" width="180" height="110" as="geometry" />
        </mxCell>
        <mxCell id="2xnklOY3mkxwDWEgLXTY-59" value="EABS CPU Module Application" style="rounded=0;shadow=1;fontStyle=1;fontSize=14;align=center;verticalAlign=middle;" parent="1" vertex="1">
          <mxGeometry x="390" y="170" width="440" height="160" as="geometry" />
        </mxCell>
        <mxCell id="2xnklOY3mkxwDWEgLXTY-60" value="EABS I/O Module Software" style="rounded=0;shadow=1;fontStyle=1;fontSize=14;align=left;verticalAlign=top;" parent="1" vertex="1">
          <mxGeometry x="852" y="140" width="460" height="320" as="geometry" />
        </mxCell>
        <mxCell id="2xnklOY3mkxwDWEgLXTY-61" value="H/W" style="rounded=0;shadow=1;fontStyle=1;fontSize=28;align=center;verticalAlign=middle;spacing=2;fillColor=#f5f5f5;fontColor=#333333;strokeColor=#666666;" parent="1" vertex="1">
          <mxGeometry x="852" y="460" width="460" height="70" as="geometry" />
        </mxCell>
        <mxCell id="2xnklOY3mkxwDWEgLXTY-63" value="Device Driver" style="rounded=0;shadow=1;fontStyle=1;fontSize=24;align=center;verticalAlign=middle;" parent="1" vertex="1">
          <mxGeometry x="860" y="380" width="442" height="70" as="geometry" />
        </mxCell>
        <mxCell id="2xnklOY3mkxwDWEgLXTY-64" value="EABS I/O Module Application" style="rounded=0;shadow=1;fontStyle=1;fontSize=14;align=center;verticalAlign=middle;" parent="1" vertex="1">
          <mxGeometry x="862" y="170" width="440" height="200" as="geometry" />
        </mxCell>
      </root>
    </mxGraphModel>
  </diagram>
</mxfile>
